<?xml version="1.0" standalone="no"?>
<!DOCTYPE svg PUBLIC "-//W3C//DTD SVG 1.1//EN" "http://www.w3.org/Graphics/SVG/1.1/DTD/svg11.dtd" >
<svg xmlns="http://www.w3.org/2000/svg" xmlns:xlink="http://www.w3.org/1999/xlink" version="1.1">
<metadata>
Created by FontForge 20180930 at Mon Oct  8 19:11:00 2018
 By root
Copyright (c) 1992 Image Club Graphics, Inc.
</metadata>
<defs>
<font id="KabelBold" horiz-adv-x="790" >
  <font-face 
    font-family="Kabel"
    font-weight="7"
    font-stretch="normal"
    units-per-em="1273"
    panose-1="0 0 0 0 0 0 0 0 0 0"
    ascent="1018"
    descent="-255"
    x-height="774"
    cap-height="1050"
    bbox="-28 -340 1614 1428"
    underline-thickness="20"
    underline-position="-148"
    unicode-range="U+0020-2122"
  />
    <missing-glyph />
    <glyph glyph-name=".null" unicode="&#xd7;" horiz-adv-x="0" 
 />
    <glyph glyph-name=".null" unicode="&#x141;" horiz-adv-x="0" 
 />
    <glyph glyph-name=".null" unicode="&#xfd;" horiz-adv-x="0" 
 />
    <glyph glyph-name="space" unicode=" " horiz-adv-x="415" 
 />
    <glyph glyph-name="exclam" unicode="!" horiz-adv-x="475" 
d="M366 1090l-19 -736l-232 -25l-17 730zM406 138l-170 -173l-171 171l171 172z" />
    <glyph glyph-name="quotedbl" unicode="&#x22;" horiz-adv-x="540" 
d="M481 656l-160 -7v372l160 5v-370zM225 656l-160 -7v372l160 5v-370z" />
    <glyph glyph-name="numbersign" unicode="#" horiz-adv-x="1017" 
d="M946 1023l-46 -124h-171l-46 -131h170l-45 -129h-172l-63 -177h-136l61 177h-119l-64 -177h-139l65 177h-176l45 126h176l48 131h-176l50 128h173l60 166h137l-61 -168h121l63 168h133l-60 -167h172zM593 896h-121l-48 -129h124z" />
    <glyph glyph-name="dollar" unicode="$" horiz-adv-x="679" 
d="M619 470q0 -82 -45 -142q-38 -51 -104 -81q-14 -7 -30 -12t-21 -6v-152l-150 -21v167q-20 4 -32 6q-37 8 -56 17q-51 24 -97 58q-14 11 -34 28l125 144q11 -12 18 -18q23 -20 48 -32q38 -16 82 -16q42 0 55.5 17.5t13.5 33.5q0 30 -40 49q-15 7 -59 18q-66 17 -114 48.5
t-75 83t-27 103.5q0 79 51 143q37 46 86 73q16 9 30 14q25 6 27 6v136l149 18v-152q23 -3 47.5 -10t48.5 -20q35 -19 69 -55q11 -12 27 -33l-136 -120q-9 12 -14 18q-17 18 -31 26q-26 14 -63 14q-22 0 -34.5 -3.5t-19.5 -12.5q-13 -16 -13 -33q0 -16 13.5 -28t69.5 -28
q41 -12 80 -28q57 -24 95 -64q60 -63 60 -154z" />
    <glyph glyph-name="percent" unicode="%" horiz-adv-x="1154" 
d="M932 1005l-587 -1031l-120 43l446 782q-11 -6 -26.5 -8t-18.5 -2q-17 0 -29.5 5t-26.5 17q0 -18 -1.5 -42t-1.5 -26q0 -76 -77 -143t-171 -67q-104 0 -179 74t-75 178q0 103 72.5 177.5t175.5 74.5q75 0 136 -33q1 0 72 -51q50 -36 60 -40q26 -12 51 -12q18 0 35 4.5
t38 16.5q46 25 78 74q10 16 24 45zM1101 263q0 -110 -68 -187.5t-171 -77.5q-113 0 -187 74t-74 181q0 103 70.5 177.5t171.5 74.5q104 0 181 -70t77 -172zM423 792q0 42 -32.5 70.5t-77.5 28.5q-41 0 -70 -32t-29 -74q0 -41 30 -72t72 -31q43 0 75 33t32 77zM953 255
q0 41 -30 70t-71 29q-44 0 -74 -34t-30 -83q0 -36 32.5 -61.5t75.5 -25.5q40 0 68.5 31.5t28.5 73.5z" />
    <glyph glyph-name="ampersand" unicode="&#x26;" horiz-adv-x="1072" 
d="M1020 387l-144 -124l142 -161l-174 -143l-138 161q-22 -20 -35 -32q-41 -36 -70 -55q-47 -30 -101 -45.5t-106 -15.5q-80 0 -150 31t-112 85q-69 88 -69 198q0 51 17.5 101.5t53.5 95.5q23 29 63 58q53 39 83 50q-25 22 -56 78q-25 46 -27.5 70t-3 32t-0.5 13
q0 116 85 190.5t202 74.5q165 0 246 -75q73 -67 73 -189q0 -87 -90 -169q-30 -27 -91 -65l116 -135l144 138zM578 802q0 24 -20.5 44t-54.5 20q-5 0 -25.5 -3t-34.5 -22.5t-14 -46.5q0 -18 6.5 -35.5t24.5 -38.5q12 -14 20 -19q9 -3 50 28q48 36 48 73zM579 273l-147 159
q-27 -15 -41 -26q-45 -35 -56 -74q-4 -13 -4 -31q0 -56 26 -78q35 -30 84 -30q15 0 30 4t28 13q73 49 80 63z" />
    <glyph glyph-name="quotesingle" unicode="'" horiz-adv-x="291" 
d="M225 656l-160 -7v372l160 5v-370z" />
    <glyph glyph-name="parenleft" unicode="(" horiz-adv-x="591" 
d="M542 1170q-134 -141 -206 -323q-66 -168 -66 -334q0 -214 64 -381t203 -315l-142 -129q-157 164 -239 380.5t-82 459.5q0 210 93 419q88 197 240 351z" />
    <glyph glyph-name="parenright" unicode=")" horiz-adv-x="594" 
d="M534 528q0 -242 -82 -459t-239 -381l-143 129q137 146 202 315t65 381q0 167 -65 333q-71 183 -207 324l135 128q151 -151 240 -351q94 -210 94 -419z" />
    <glyph glyph-name="asterisk" unicode="*" horiz-adv-x="613" 
d="M561 968l-158 -88l145 -69l-33 -101l-154 91l6 -155l-98 -28l1 176l-129 -88l-76 76l161 94l-143 68l28 102l156 -88l-6 160l100 23v-183l126 87z" />
    <glyph glyph-name="plus" unicode="+" horiz-adv-x="850" 
d="M788 317h-321v-320h-84v320h-318l1 91h317v320h86v-321h319v-90z" />
    <glyph glyph-name="comma" unicode="," horiz-adv-x="578" 
d="M515 303l-250 -559h-200l158 525z" />
    <glyph glyph-name="hyphen" unicode="-" horiz-adv-x="546" 
d="M480 325h-415v186h415v-186z" />
    <glyph glyph-name="period" unicode="." horiz-adv-x="469" 
d="M418 139l-170 -173l-183 168l172 176z" />
    <glyph glyph-name="slash" unicode="/" horiz-adv-x="870" 
d="M811 1010l-586 -1270l-160 59l592 1277z" />
    <glyph glyph-name="zero" unicode="0" horiz-adv-x="914" 
d="M854 486q0 -196 -93 -340q-109 -169 -303 -169q-191 0 -295 163q-93 145 -93 367q0 231 96 377q106 161 299 161q198 0 298 -158q91 -144 91 -401zM599 514q0 119 -28 196q-37 101 -112 101q-77 0 -111 -103q-26 -78 -26 -201q0 -120 26 -196q35 -102 111 -102
q79 0 114 103q26 77 26 202z" />
    <glyph glyph-name="one" unicode="1" horiz-adv-x="660" 
d="M586 1096l-1 -1096l-264 -21v719l-163 -84l-93 162z" />
    <glyph glyph-name="two" unicode="2" horiz-adv-x="924" 
d="M873 238l-61 -238h-747l385 459q36 43 71 101q54 88 54 131q0 72 -40 108q-34 30 -90 30q-52 0 -85.5 -35.5t-33.5 -86.5q0 -41 25.5 -72.5t62.5 -46.5l-147 -196q-20 12 -32 20q-35 23 -55 42q-38 35 -64 86q-40 80 -40 183q0 148 110 242t275 94q157 0 265 -83
q117 -90 117 -241q0 -84 -48.5 -190.5t-121.5 -187.5l-107 -119h307z" />
    <glyph glyph-name="three" unicode="3" horiz-adv-x="896" 
d="M820 387q16 -49 16 -98q0 -74 -37 -141q-30 -54 -79.5 -95t-122 -63t-150.5 -22q-96 0 -177 29q-64 24 -116 60q-46 32 -89 82l176 165q16 -19 27 -30q35 -35 69 -49q17 -8 42 -15t50 -7q27 0 50 7t47 25q18 13 27 34.5t9 46.5q0 33 -16.5 61.5t-41.5 36.5t-74 10.5
t-60 2.5q-47 0 -49 -2v192q8 0 17 -0.5t24 -0.5h12q51 0 81.5 6.5t53.5 26.5q31 27 31 67q0 17 -4 32q-11 40 -43 58.5t-74 18.5q-58 0 -92 -27q-27 -21 -46 -43q-12 -13 -15 -20l-185 119q12 24 44.5 60.5t64.5 59.5q44 31 105 52q73 25 147 25q39 0 75 -6t77 -21
q94 -34 148 -107.5t54 -161.5v-13q0 -8 -2 -22q-10 -82 -55 -137q-45 -41 -46 -42q18 -7 55 -43q54 -52 72 -111z" />
    <glyph glyph-name="four" unicode="4" horiz-adv-x="964" 
d="M904 471l-38 -224h-108v-247l-255 -23v270h-438l343 795h347v-571h149zM520 462v340l-144 -340h144z" />
    <glyph glyph-name="five" unicode="5" horiz-adv-x="867" 
d="M812 324q0 -154 -119 -258q-114 -100 -267 -100q-96 0 -198 45q-125 55 -163 103l179 185q21 -27 39 -40q54 -40 126 -40q58 0 103 38.5t45 93.5q0 10 -1 16q-11 70 -67 104q-46 28 -110 28q-63 0 -135 -22q-55 -17 -69 -28v573h586l-62 -231h-275v-95q10 2 18 3
q27 4 45 4q149 0 240 -116q85 -108 85 -263z" />
    <glyph glyph-name="six" unicode="6" horiz-adv-x="926" 
d="M865 356q0 -178 -125 -287q-113 -98 -269 -98q-174 0 -283 112t-109 300q0 114 67 243q9 16 115 183q23 36 84 107q41 48 100 112l48 52l272 -98q-11 -8 -65 -54q-65 -56 -109 -101t-61 -64q-23 -26 -62 -75q10 2 41.5 5.5t42.5 3.5q139 0 228 -103q85 -98 85 -238z
M613 358q0 56 -43 95t-100 39q-58 0 -96.5 -43.5t-38.5 -104.5q0 -56 41.5 -94.5t98.5 -38.5q58 0 98 43.5t40 103.5z" />
    <glyph glyph-name="seven" unicode="7" horiz-adv-x="886" 
d="M811 1034l-325 -1034l-294 -43l287 831h-414l68 246h678z" />
    <glyph glyph-name="eight" unicode="8" horiz-adv-x="878" 
d="M823 280q0 -150 -110 -233q-100 -76 -254 -76q-176 0 -279 76q-109 80 -109 223q0 85 45 158q56 91 102 106q-48 36 -76 90q-34 65 -34 144q0 138 110 214q97 67 242 67q140 0 233 -70q104 -78 104 -218q0 -77 -38 -141t-85 -87q64 -38 103 -98q46 -70 46 -155zM544 757
q0 41 -26 64t-68 23q-39 0 -66.5 -25.5t-27.5 -63.5q0 -36 26 -65.5t59 -40.5q30 0 71 39q32 30 32 69zM577 289q0 54 -40 93q-51 49 -91 49q-40 -17 -60 -31q-60 -43 -60 -100t40 -86q35 -26 91 -26q48 0 84 31t36 70z" />
    <glyph glyph-name="nine" unicode="9" horiz-adv-x="923" 
d="M861 638q0 -81 -33 -167q-26 -69 -74 -145l-76 -114q-23 -36 -84 -107q-41 -48 -100 -112l-48 -52l-272 97l65 55q67 58 108 99q36 37 62 66q31 35 62 74q-17 -3 -39 -6t-44 -3q-140 0 -229 103q-85 98 -85 238q0 178 125 287q113 98 269 98q174 0 283.5 -112.5
t109.5 -298.5zM605 677q0 55 -41.5 93.5t-98.5 38.5q-59 0 -99 -43t-40 -103q0 -56 42.5 -95.5t100.5 -39.5q57 0 96.5 44.5t39.5 104.5z" />
    <glyph glyph-name="colon" unicode=":" horiz-adv-x="480" 
d="M422 565l-170 -174l-187 162l170 176zM425 133l-170 -173l-183 168l172 175z" />
    <glyph glyph-name="semicolon" unicode=";" horiz-adv-x="581" 
d="M522 573l-174 -173l-180 163l176 170zM515 304l-250 -560h-200l158 525z" />
    <glyph glyph-name="less" unicode="&#x3c;" horiz-adv-x="843" 
d="M775 -2l-707 331v76l706 321v-95l-588 -264l589 -277v-92z" />
    <glyph glyph-name="equal" unicode="=" horiz-adv-x="868" 
d="M804 417h-734v82h734v-82zM804 144h-734v82h734v-82z" />
    <glyph glyph-name="greater" unicode="&#x3e;" horiz-adv-x="833" 
d="M781 332l-707 -331v92l589 277l-588 263v96l706 -321v-76z" />
    <glyph glyph-name="question" unicode="?" horiz-adv-x="784" 
d="M728 759q0 -95 -58 -175q-49 -68 -120 -104q-46 -24 -46 -86v-57l-231 -21v114q0 57 10 96.5t39 67.5q15 15 69 52q77 52 77 104q-1 8 -1 12q-3 36 -33 55t-67 19q-9 -1 -14 -1q-40 -4 -76 -41q-26 -27 -29 -40l-183 142q17 21 34 43q46 50 105 81q83 44 178 44
q153 0 249.5 -87.5t96.5 -217.5zM560 109l-167 -163l-163 170l167 163z" />
    <glyph glyph-name="at" unicode="@" horiz-adv-x="1082" 
d="M1029 579q0 -152 -110 -269q-102 -108 -212 -108q-35 0 -50 20q-11 15 -11 38q0 9 1 15q0 2 2 6q-31 -31 -78 -52.5t-88 -21.5q-97 0 -153 70q-51 64 -51 158q0 119 75 207q79 93 193 93q74 0 122 -36q35 -38 37 -40l13 65h122l-65 -387q-3 -11 0.5 -19.5t14.5 -8.5
q42 0 90.5 82t48.5 158q0 144 -98 235q-101 94 -265 94t-277.5 -111.5t-113.5 -282.5q0 -173 109 -285q115 -118 305 -118q78 0 138.5 28t121.5 88h119q-71 -103 -170.5 -156.5t-217.5 -53.5q-232 0 -371 143q-133 137 -133 349q0 222 147 361q141 133 351 133
q201 0 331 -121q123 -114 123 -273zM663 496q0 51 -20 83q-24 38 -73 38q-63 0 -107 -52t-44 -119q0 -55 29.5 -89.5t77.5 -34.5q62 0 101 54q36 50 36 120z" />
    <glyph glyph-name="A" unicode="A" horiz-adv-x="1221" 
d="M1183 0l-263 -56l-110 232h-387l-98 -234l-264 58l562 1099zM720 393l-104 229l-102 -229h206z" />
    <glyph glyph-name="B" unicode="B" horiz-adv-x="878" 
d="M810 316q0 -150 -89.5 -233t-239.5 -83h-415v1022h305q122 0 195 -14q101 -19 152 -69q61 -59 61 -165q1 -16 1 -24q0 -93 -67 -164q-22 -23 -67 -52q55 -26 82 -49q82 -69 82 -169zM511 733q-6 54 -45 76q-29 16 -84 16h-62v-207h64q50 0 87 26q41 29 41 77q-1 8 -1 12z
M541 317q0 57 -38 80.5t-116 23.5h-67v-213h75q79 0 112.5 26.5t33.5 82.5z" />
    <glyph glyph-name="C" unicode="C" horiz-adv-x="907" 
d="M850 292l-38 -283q-37 -15 -67 -23.5t-55.5 -11.5t-44 -4t-35.5 -1q-229 0 -386.5 157.5t-157.5 379.5q0 219 146.5 379.5t359.5 160.5q105 0 142.5 -5.5t89.5 -23.5l42 -293q-49 46 -102.5 62.5t-130.5 16.5q-116 0 -192.5 -94t-76.5 -218q0 -126 99 -205
q91 -72 215 -72q107 0 192 78z" />
    <glyph glyph-name="D" unicode="D" horiz-adv-x="1001" 
d="M937 517q0 -236 -170 -380q-162 -137 -410 -137h-294v1022h310q259 0 408 -126q156 -132 156 -379zM671 527q0 151 -97 215q-78 52 -230 52h-10v-556h21q171 0 250 87q66 73 66 202z" />
    <glyph glyph-name="E" unicode="E" horiz-adv-x="815" 
d="M757 225l-68 -225h-624v1022h611l52 -225h-399v-163h287v-225h-289v-184h430z" />
    <glyph glyph-name="F" unicode="F" horiz-adv-x="756" 
d="M702 797h-373v-218h276v-230h-276v-349l-264 -25v1047h574z" />
    <glyph glyph-name="G" unicode="G" horiz-adv-x="1111" 
d="M1045 76q-53 -35 -179.5 -69t-238.5 -34q-241 0 -400.5 156.5t-159.5 384.5q0 222 155 378t381 156q121 0 226 -38q74 -27 136 -71l48 -40l-158 -193q-38 44 -103 72q-71 31 -153 31q-106 0 -186 -89t-80 -202q0 -130 84.5 -215.5t216.5 -85.5q36 0 88 12t58 16v150h-263
l76 212h452v-531z" />
    <glyph glyph-name="H" unicode="H" horiz-adv-x="994" 
d="M936 0l-276 -22v431h-322v-409l-273 -22v1044l273 23v-401h322v378l276 26v-1048z" />
    <glyph glyph-name="I" unicode="I" horiz-adv-x="515" 
d="M393 0l-259 -19l-1 1041l260 28v-1050z" />
    <glyph glyph-name="J" unicode="J" horiz-adv-x="664" 
d="M609 393q0 -121 -28 -201q-34 -96 -113 -149q-53 -36 -117 -52q-51 -13 -109 -13q-43 0 -78 6q-6 1 -34 8l-65 255q8 -5 80 -14q50 -6 75 -6q75 0 101 44q18 30 18 99v652l270 26v-655z" />
    <glyph glyph-name="K" unicode="K" horiz-adv-x="1008" 
d="M988 41l-275 -76l-345 511v-476l-268 -23v1045l268 30v-478l350 472l261 -72l-341 -450z" />
    <glyph glyph-name="L" unicode="L" horiz-adv-x="793" 
d="M768 246l-68 -246h-609v1022l275 28v-804h402z" />
    <glyph glyph-name="M" unicode="M" horiz-adv-x="1334" 
d="M1284 0l-262 -22l-85 456l-262 -516l-256 520l-91 -469l-262 31l281 1076l328 -670l341 668z" />
    <glyph glyph-name="N" unicode="N" horiz-adv-x="1030" 
d="M967 -72l-640 574v-502l-262 -23v1115l645 -585v515l257 27v-1121z" />
    <glyph glyph-name="O" unicode="O" horiz-adv-x="1247" 
d="M1186 514q0 -226 -160 -384t-391 -158q-240 0 -399 153t-159 382q0 234 161.5 388.5t394.5 154.5q227 0 390 -156t163 -380zM921 513q0 119 -83 204q-86 88 -211 88q-119 0 -207 -91t-88 -213q0 -115 89.5 -203.5t204.5 -88.5q111 0 201 89q94 93 94 215z" />
    <glyph glyph-name="P" unicode="P" horiz-adv-x="867" 
d="M843 687q0 -97 -52 -177q-67 -103 -203 -139q-31 -8 -79 -11.5t-92 -3.5h-32.5t-16.5 1v-357l-264 -21v1043h292q201 0 311 -68q136 -84 136 -267zM581 692q0 66 -57 89q-39 16 -117 16h-38v-217h38q89 0 131.5 28.5t42.5 83.5z" />
    <glyph glyph-name="Q" unicode="Q" horiz-adv-x="1305" 
d="M1256 34l-231 -103l-126 124q-46 -33 -122.5 -56.5t-158.5 -23.5q-226 0 -385.5 156t-159.5 380q0 225 153.5 382.5t384.5 157.5q245 0 406 -144q170 -152 170 -399q0 -96 -33 -183q-27 -72 -75 -135zM925 509q0 123 -82 209q-86 90 -216 90q-126 0 -208.5 -89.5
t-82.5 -213.5q0 -115 87.5 -202.5t195.5 -87.5q36 0 45 2q21 8 43 15l-133 122l204 101l103 -94q25 40 34.5 75.5t9.5 72.5z" />
    <glyph glyph-name="R" unicode="R" horiz-adv-x="1003" 
d="M919 55l-270 -84l-314 480v-451l-270 -17v1039h318q183 0 290 -62q130 -76 130 -236q0 -100 -48 -174q-43 -65 -120 -107zM536 692q0 64 -36 99t-109 35h-56v-275h61q71 0 108 45q32 38 32 96z" />
    <glyph glyph-name="S" unicode="S" horiz-adv-x="886" 
d="M812 306q0 -147 -102.5 -240.5t-268.5 -93.5q-105 0 -211 43q-114 46 -165 97l159 191q30 -30 51 -44q66 -45 134 -45q13 0 20 1q56 5 79 18q37 21 37 70q0 56 -144 96q-90 25 -117 40q-75 42 -114 91q-63 79 -63 199q0 135 101.5 228.5t239.5 93.5q120 0 220 -41.5
t132 -90.5l-150 -183q-7 26 -64 56q-50 26 -109 26q-40 0 -71 -16t-31 -44q0 -68 93 -101q66 -21 97 -30q134 -42 193 -124q54 -76 54 -197z" />
    <glyph glyph-name="T" unicode="T" horiz-adv-x="915" 
d="M861 776h-257v-776l-263 -22v798h-276l71 246h725v-246z" />
    <glyph glyph-name="U" unicode="U" horiz-adv-x="958" 
d="M898 367q0 -193 -122 -301q-112 -99 -291 -99q-189 0 -303 98q-117 101 -117 273v684l268 26v-664q0 -66 17 -101q31 -65 118 -65h15q7 1 10 1q89 8 119 76q15 34 15 102v625l271 25v-680z" />
    <glyph glyph-name="V" unicode="V" horiz-adv-x="987" 
d="M960 1022l-490 -1105l-448 1105l273 47l186 -544l211 546z" />
    <glyph glyph-name="W" unicode="W" horiz-adv-x="1402" 
d="M1383 1022l-383 -1082l-299 606l-303 -607l-367 1083l264 32l146 -496l266 533l259 -529l157 491z" />
    <glyph glyph-name="X" unicode="X" horiz-adv-x="1100" 
d="M1069 0l-269 -91l-250 399l-269 -410l-258 102l376 526l-344 496l266 81l236 -367l245 381l253 -95l-348 -492z" />
    <glyph glyph-name="Y" unicode="Y" horiz-adv-x="1057" 
d="M1028 966l-515 -1045l-280 53l190 359l-396 631l266 99l273 -460l204 450z" />
    <glyph glyph-name="Z" unicode="Z" horiz-adv-x="976" 
d="M948 1022l-474 -776h467l-68 -246h-842l460 796h-388l56 226h789z" />
    <glyph glyph-name="bracketleft" unicode="[" horiz-adv-x="392" 
d="M337 -189h-273v1281h266v-69h-166l1 -1142h172v-70z" />
    <glyph glyph-name="backslash" unicode="\" horiz-adv-x="776" 
d="M714 25l-160 -59l-489 1018l154 66z" />
    <glyph glyph-name="bracketright" unicode="]" horiz-adv-x="400" 
d="M336 -188h-273v69h171l2 1143h-165v69h265v-1281z" />
    <glyph glyph-name="asciicircum" unicode="^" horiz-adv-x="591" 
d="M538 867l-114 -52l-124 94l-126 -98l-109 58l240 190z" />
    <glyph glyph-name="underscore" unicode="_" horiz-adv-x="885" 
d="M918 -224h-911v44h911v-44z" />
    <glyph glyph-name="grave" unicode="`" horiz-adv-x="471" 
d="M410 904l-62 -114l-300 134l74 134z" />
    <glyph glyph-name="a" unicode="a" horiz-adv-x="817" 
d="M753 0l-218 -23v64q-28 -25 -48 -37q-63 -38 -133 -38q-122 0 -203 71q-85 75 -85 198q0 114 85.5 188.5t210.5 74.5q69 0 123 -30q18 -10 41 -31q0 16 -0.5 35t-6.5 39q-12 41 -43 60q-36 22 -107 22q-40 0 -101 -19q-83 -26 -110 -44l45 216q24 10 122 26q72 12 115 12
q134 0 217 -58q96 -67 96 -197v-529zM524 235q0 45 -34 74t-85 29q-44 0 -77.5 -26t-33.5 -68q0 -46 31.5 -73.5t87.5 -27.5q47 0 76 21q35 25 35 71z" />
    <glyph glyph-name="b" unicode="b" horiz-adv-x="969" 
d="M945 364q0 -169 -124.5 -285.5t-301.5 -116.5q-167 0 -291 114q-128 117 -128 284v662l238 27v-350q13 16 24 25q66 56 177 56q169 0 287.5 -120.5t118.5 -295.5zM703 374q0 74 -57 131t-138 57q-74 0 -131 -55t-57 -134q0 -82 57 -136t136 -54q75 0 132.5 55.5
t57.5 135.5z" />
    <glyph glyph-name="c" unicode="c" horiz-adv-x="821" 
d="M768 66q-44 -34 -75 -51q-95 -51 -198 -51q-188 0 -308 117t-120 292q0 174 117 294.5t297 120.5q121 0 215 -49q31 -16 70 -50l-127 -169q-20 17 -36 25q-50 26 -109 26q-79 0 -130.5 -61.5t-51.5 -145.5q0 -81 51.5 -129.5t129.5 -48.5q62 0 109 26q15 8 36 27z" />
    <glyph glyph-name="d" unicode="d" horiz-adv-x="970" 
d="M870 0l-230 -23v72q-36 -32 -58 -44q-69 -39 -151 -39q-163 0 -283 117t-120 284q0 175 120.5 296.5t300.5 121.5q81 0 139 -38q19 -12 43 -39v314l239 29v-1051zM645 357q1 7 1 21q0 76 -55 134t-130 58q-77 0 -137 -49.5t-60 -120.5q-1 -7 -1 -20q0 -74 48.5 -129.5
t121.5 -62.5q7 -1 21 -1q72 0 127.5 48.5t63.5 121.5z" />
    <glyph glyph-name="e" unicode="e" horiz-adv-x="902" 
d="M851 542l-490 -308q18 -14 34 -21q50 -22 118 -22q61 0 128 40q22 13 56 41l121 -187q-23 -15 -45 -30q-59 -36 -115 -57q-84 -31 -159 -31q-183 0 -306.5 116.5t-123.5 288.5q0 157 103 276.5t261 135.5q27 3 53 3q116 0 210 -63q68 -45 118 -118q18 -32 37 -64z
M570 555q-8 5 -14 8q-37 19 -76 19q-27 0 -52.5 -8t-51.5 -28q-63 -48 -78 -130q-2 -14 -4 -35z" />
    <glyph glyph-name="f" unicode="f" horiz-adv-x="682" 
d="M670 860l-15 6q-23 10 -54 10q-26 0 -53 -8.5t-49 -26.5q-30 -26 -37 -57q-2 -10 -1 -27h159v-209h-155v-548l-240 -20v568h-125l55 209h74q-1 28 1 47q12 110 78 178q43 45 120 70q58 19 102 22.5t76 3.5z" />
    <glyph glyph-name="g" unicode="g" horiz-adv-x="906" 
d="M867 812l-50 -190l-80 -6q26 -35 44.5 -80t18.5 -84q0 -91 -65 -160q-21 -22 -67 -53q61 -31 97 -81q44 -62 44 -143q0 -137 -120 -222q-111 -79 -263 -79q-120 0 -213 38q-67 27 -113 70q-17 20 -34 39l136 148q29 -32 51 -47q68 -48 143 -48q65 0 109 23q60 31 60 95
q0 66 -48 98.5t-131 32.5q-60 0 -122 -17q-20 -5 -50 -17l25 74q-7 0 -42 24q-51 35 -80 81q-43 67 -43 154q0 150 113 240q103 82 247 82q53 0 87 -4q93 -11 97 -11h27q21 3 33 4q70 8 128.5 23.5t60.5 15.5zM573 458q0 65 -39.5 101.5t-101.5 36.5q-55 0 -91.5 -39.5
t-36.5 -93.5q0 -56 34 -98t86 -42q67 0 108 37t41 98z" />
    <glyph glyph-name="h" unicode="h" horiz-adv-x="793" 
d="M717 0l-237 -17v454q0 72 -23 101q-19 24 -61 24q-41 -4 -61 -31q-28 -38 -28 -130v-401l-242 -21v1043l246 26v-339q17 18 35 37q48 36 120 36q151 0 213 -115q41 -76 41 -201q0 -25 -1 -41t-2 -30v-395z" />
    <glyph glyph-name="i" unicode="i" horiz-adv-x="529" 
d="M445 963l-156 -154l-167 129l145 152zM403 3l-241 -17v769l241 28v-780z" />
    <glyph glyph-name="j" unicode="j" horiz-adv-x="524" 
d="M410 958l-155 -154l-168 129l145 151zM371 56q0 -106 -17 -160.5t-68 -103.5q-43 -40 -105 -58q-45 -13 -93 -13q-18 0 -28 1q-4 0 -10 2l-78 212q1 0 15.5 -1.5t20.5 -1.5q28 0 52 6t40.5 23.5t21.5 39.5t5 57v22v674l244 29v-728z" />
    <glyph glyph-name="k" unicode="k" horiz-adv-x="888" 
d="M867 32l-256 -65l-276 379v-346l-240 -20v1042l240 31v-614l261 354l239 -75l-257 -319z" />
    <glyph glyph-name="l" unicode="l" horiz-adv-x="474" 
d="M363 0l-242 -23v1045l242 26v-1048z" />
    <glyph glyph-name="m" unicode="m" horiz-adv-x="1164" 
d="M1105 0l-232 -15v467q0 51 -9 77q-16 46 -63 46q-8 0 -13 -1q-51 -5 -70 -51q-12 -30 -12 -87v-31v-405l-236 -16v461q0 73 -20 105q-16 25 -47 25q-5 0 -17 -2q-51 -10 -65 -41.5t-14 -115.5v-416l-242 -16v775l227 25v-75q26 39 55 55q45 25 105 25q64 0 113 -28
q55 -32 69 -67q43 50 90.5 72.5t115.5 22.5q117 0 191 -68t74 -180v-541z" />
    <glyph glyph-name="n" unicode="n" horiz-adv-x="786" 
d="M727 0l-240 -20v452v17q0 52 -10 81q-17 50 -63 50q-6 0 -26 -4q-56 -15 -73 -69q-10 -32 -10 -119v-388l-240 -20v777l225 27v-86l40 46q56 45 143 45q108 0 181 -72t73 -180v-537z" />
    <glyph glyph-name="o" unicode="o" horiz-adv-x="971" 
d="M915 384q0 -165 -121.5 -286.5t-292.5 -121.5q-176 0 -301 119t-125 295q0 166 123.5 286.5t295.5 120.5q186 0 305 -119q116 -116 116 -294zM680 389q0 77 -53 131t-131 54q-75 0 -129.5 -53.5t-54.5 -127.5q0 -79 53.5 -133.5t129.5 -54.5q77 0 131 54t54 130z" />
    <glyph glyph-name="p" unicode="p" horiz-adv-x="951" 
d="M927 385q0 -170 -122 -293t-291 -123q-67 0 -136 37q-23 12 -56 37v-294l-246 -23v1035l229 23v-92q53 47 57 49q70 45 160 45q164 0 284.5 -116.5t120.5 -284.5zM685 355q1 7 1 20q0 74 -48.5 129.5t-121.5 62.5q-7 1 -21 1q-72 0 -127.5 -48.5t-63.5 -121.5
q-1 -7 -1 -21q0 -76 55 -134t130 -58q77 0 137 49.5t60 120.5z" />
    <glyph glyph-name="q" unicode="q" horiz-adv-x="984" 
d="M884 -255l-240 -22v327q-23 -26 -42 -38q-59 -39 -138 -39q-183 0 -309.5 119.5t-126.5 295.5q0 169 122 286t296 117q82 0 153 -48q22 -15 61 -54v71l224 24v-1039zM653 405q-8 72 -64 121t-128 49q-13 0 -20 -1q-74 -8 -122 -62.5t-48 -130.5q0 -12 1 -19
q0 -70 60 -120t137 -50t131 57.5t54 135.5q0 13 -1 20z" />
    <glyph glyph-name="r" unicode="r" horiz-adv-x="623" 
d="M602 772l-78 -244q-7 2 -18.5 4t-17.5 2q-17 0 -26 -1.5t-29 -7.5q-42 -13 -62 -46q-23 -38 -23 -125v-33v-321l-253 -25v780l236 29v-129q6 26 47 63q35 32 80 47q18 6 42 9t42 3q24 0 40.5 -2t19.5 -3z" />
    <glyph glyph-name="s" unicode="s" horiz-adv-x="755" 
d="M706 216q0 -110 -102 -184q-98 -71 -233 -71q-83 0 -170 35q-96 39 -135 78l123 163q31 -28 52 -42q65 -42 130 -42q40 0 72 17t29 48q-4 36 -72 49q-113 22 -158 41q-60 26 -96 71q-47 59 -47 145q0 110 85 185t200 75q87 0 170.5 -35t127.5 -79l-147 -137
q-14 14 -28 29q-37 28 -86 28q-35 0 -63 -14.5t-28 -42.5q0 -33 91 -52q42 -9 85 -17q75 -16 124 -59q76 -67 76 -189z" />
    <glyph glyph-name="t" unicode="t" horiz-adv-x="687" 
d="M663 212l-69 -237q-8 -1 -25 -2t-28 -1q-51 0 -92 8q-57 11 -104 39q-74 44 -108 115q-27 57 -27 130v272h-128l61 215h75v147l235 98v-245h154v-215h-153v-213q0 -51 11.5 -73t42.5 -37q13 -6 29 -8.5t38 -2.5q31 0 57 3.5t31 6.5z" />
    <glyph glyph-name="u" unicode="u" 
d="M727 0l-225 -27v84l-40 -46q-56 -45 -143 -45q-108 0 -181 72t-73 180v545l239 21v-460q0 -62 6 -86q16 -63 67 -63q14 0 27 4q56 15 73 69q10 32 10 119v397l240 20v-784z" />
    <glyph glyph-name="v" unicode="v" horiz-adv-x="831" 
d="M797 739l-388 -816l-391 816l240 45l154 -358l152 358z" />
    <glyph glyph-name="w" unicode="w" horiz-adv-x="1153" 
d="M1123 765l-346 -809l-208 435l-203 -430l-344 795l239 28l122 -362l192 397l186 -385l123 350z" />
    <glyph glyph-name="x" unicode="x" horiz-adv-x="867" 
d="M835 0l-244 -69l-158 265l-165 -266l-241 70l273 384l-253 367l239 61l153 -248l157 246l237 -58l-262 -367z" />
    <glyph glyph-name="y" unicode="y" horiz-adv-x="901" 
d="M883 747l-468 -1013l-257 34l171 325l-307 654l243 54l192 -447l189 450z" />
    <glyph glyph-name="z" unicode="z" horiz-adv-x="753" 
d="M724 223l-60 -223h-642l312 555h-252l55 219h577l-302 -551h312z" />
    <glyph glyph-name="braceleft" unicode="{" horiz-adv-x="448" 
d="M388 -254l-39 -1q-55 0 -103 28t-58 65q-5 19 -8.5 40t-3.5 43v313q0 37 -7.5 64.5t-25 46t-38.5 29.5t-46 11q30 4 53 18.5t39.5 36.5t21.5 43.5t5 53.5v23v273q0 52 9.5 87t39.5 63q25 24 50.5 31t69.5 7l38 1q-57 -15 -92 -64q-18 -27 -23 -51t-5 -66v-283
q0 -42 -6 -69.5t-29 -53.5q-32 -38 -81 -49q27 -5 46 -15.5t36 -30.5q21 -27 27 -57t6 -79v-301q0 -33 4.5 -51.5t21.5 -41.5q21 -29 42.5 -43.5t55.5 -20.5z" />
    <glyph glyph-name="bar" unicode="|" horiz-adv-x="250" 
d="M196 -273h-131v1296h131v-1296z" />
    <glyph glyph-name="braceright" unicode="}" horiz-adv-x="413" 
d="M380 385q-25 0 -46 -10.5t-38 -28.5t-25 -47.5t-8 -63.5v-313q0 -26 -2 -37.5t-11 -47t-58 -64t-102 -28.5l-39 2q59 11 98 63q15 21 20.5 42t5.5 52v301q0 51 5 79.5t28 56.5q17 21 35 30.5t47 14.5q-49 12 -81 49q-21 25 -28 55t-7 69v283q0 42 -4.5 66t-23.5 51
q-35 49 -92 64l38 -1q43 0 69 -7t51 -31q30 -29 41 -68q8 -29 8 -83v-272q0 -50 3.5 -73t22.5 -48q16 -21 40 -36t53 -19z" />
    <glyph glyph-name="asciitilde" unicode="~" horiz-adv-x="624" 
d="M571 950q-36 -41 -70.5 -60.5t-81.5 -19.5q-39 0 -99 26.5t-85 26.5q-28 0 -52 -15q-16 -10 -43 -37l-75 93q40 43 71 61q39 22 90 22q35 0 98 -25t85 -25q41 0 70 23q23 25 24 26z" />
    <glyph glyph-name="Adieresis" unicode="&#xc4;" horiz-adv-x="1218" 
d="M1183 0l-263 -56l-110 232h-387l-98 -234l-264 58l562 1099zM720 393l-104 229l-102 -229h206zM891 1189l-115 -117l-123 113l116 119zM589 1189l-115 -117l-124 113l116 119z" />
    <glyph glyph-name="Aring" unicode="&#xc5;" horiz-adv-x="1218" 
d="M749 1291q0 -54 -38.5 -93.5t-91.5 -39.5q-58 0 -100 40t-42 96t40 95t96 39t96 -40t40 -97zM662 1298q0 19 -15 32t-35 13t-33.5 -14.5t-13.5 -34.5q0 -19 14 -34t34 -15t34.5 15.5t14.5 37.5zM1183 0l-263 -56l-110 232h-387l-98 -234l-264 58l562 1099zM720 393
l-104 229l-102 -229h206z" />
    <glyph glyph-name="Ccedilla" unicode="&#xc7;" horiz-adv-x="906" 
d="M851 295l-38 -283q-22 -9 -41.5 -15.5t-45 -12t-47 -7.5t-50.5 -2l-11 -25l21 -1q44 -10 65.5 -41t21.5 -75q0 -51 -34.5 -84.5t-87.5 -33.5q-37 0 -73 13q-48 17 -64 33l32 81q16 -12 25 -17q30 -18 50 -18q49 0 49 39q0 29 -28 29q-16 0 -26 -6q-3 -2 -8 -7l-58 45
l33 72q-41 5 -88 19q-165 52 -271 188q-110 142 -110 323q0 219 146.5 379.5t359.5 160.5q105 0 144 -6t88 -23l42 -293q-50 46 -103.5 62.5t-129.5 16.5q-116 0 -192.5 -94t-76.5 -218q0 -126 99 -205q91 -72 215 -72q105 0 192 78z" />
    <glyph glyph-name="Eacute" unicode="&#xc9;" horiz-adv-x="811" 
d="M757 225l-68 -225h-624v1022h611l52 -225h-399v-163h287v-225h-289v-184h430zM581 1203l-300 -134l-62 114l288 154z" />
    <glyph glyph-name="Ntilde" unicode="&#xd1;" horiz-adv-x="1027" 
d="M967 -72l-640 574v-502l-262 -23v1115l645 -585v515l257 27v-1121zM779 1155q-36 -41 -70.5 -60.5t-81.5 -19.5q-39 0 -99 26.5t-85 26.5q-28 0 -52 -15q-16 -10 -43 -37l-75 93q40 43 71 61q39 22 90 22q35 0 98 -25t85 -25q41 0 70 23q23 25 24 26z" />
    <glyph glyph-name="Odieresis" unicode="&#xd6;" horiz-adv-x="1250" 
d="M1186 514q0 -226 -160 -384t-391 -158q-240 0 -399 153t-159 382q0 234 161.5 388.5t394.5 154.5q227 0 390 -156t163 -380zM921 513q0 119 -83 204q-86 88 -211 88q-119 0 -207 -91t-88 -213q0 -115 89.5 -203.5t204.5 -88.5q111 0 201 89q94 93 94 215zM873 1189
l-115 -117l-123 113l116 119zM571 1189l-115 -117l-124 113l116 119z" />
    <glyph glyph-name="Udieresis" unicode="&#xdc;" horiz-adv-x="954" 
d="M898 367q0 -193 -122 -301q-112 -99 -291 -99q-189 0 -303 98q-117 101 -117 273v684l268 26v-664q0 -66 17 -101q31 -65 118 -65h15q7 1 10 1q89 8 119 76q15 34 15 102v625l271 25v-680zM749 1190l-115 -117l-123 113l116 119zM447 1190l-115 -117l-124 113l116 119z
" />
    <glyph glyph-name="aacute" unicode="&#xe1;" horiz-adv-x="818" 
d="M753 0l-218 -23v64q-28 -25 -48 -37q-63 -38 -133 -38q-122 0 -203 71q-85 75 -85 198q0 114 85.5 188.5t210.5 74.5q69 0 123 -30q18 -10 41 -31q0 16 -0.5 35t-6.5 39q-12 41 -43 60q-36 22 -107 22q-40 0 -101 -19q-83 -26 -110 -44l45 216q24 10 122 26q72 12 115 12
q134 0 217 -58q96 -67 96 -197v-529zM524 235q0 45 -34 74t-85 29q-44 0 -77.5 -26t-33.5 -68q0 -46 31.5 -73.5t87.5 -27.5q47 0 76 21q35 25 35 71zM590 974l-300 -134l-62 114l288 154z" />
    <glyph glyph-name="agrave" unicode="&#xe0;" horiz-adv-x="813" 
d="M753 0l-218 -23v64q-28 -25 -48 -37q-63 -38 -133 -38q-122 0 -203 71q-85 75 -85 198q0 114 85.5 188.5t210.5 74.5q69 0 123 -30q18 -10 41 -31q0 16 -0.5 35t-6.5 39q-12 41 -43 60q-36 22 -107 22q-40 0 -101 -19q-83 -26 -110 -44l45 216q24 10 122 26q72 12 115 12
q134 0 217 -58q96 -67 96 -197v-529zM524 235q0 45 -34 74t-85 29q-44 0 -77.5 -26t-33.5 -68q0 -46 31.5 -73.5t87.5 -27.5q47 0 76 21q35 25 35 71zM607 952l-62 -114l-300 134l74 134z" />
    <glyph glyph-name="acircumflex" unicode="&#xe2;" horiz-adv-x="813" 
d="M753 0l-218 -23v64q-28 -25 -48 -37q-63 -38 -133 -38q-122 0 -203 71q-85 75 -85 198q0 114 85.5 188.5t210.5 74.5q69 0 123 -30q18 -10 41 -31q0 16 -0.5 35t-6.5 39q-12 41 -43 60q-36 22 -107 22q-40 0 -101 -19q-83 -26 -110 -44l45 216q24 10 122 26q72 12 115 12
q134 0 217 -58q96 -67 96 -197v-529zM524 235q0 45 -34 74t-85 29q-44 0 -77.5 -26t-33.5 -68q0 -46 31.5 -73.5t87.5 -27.5q47 0 76 21q35 25 35 71zM680 895l-114 -52l-124 94l-126 -98l-109 58l240 190z" />
    <glyph glyph-name="adieresis" unicode="&#xe4;" horiz-adv-x="815" 
d="M753 0l-218 -23v64q-28 -25 -48 -37q-63 -38 -133 -38q-122 0 -203 71q-85 75 -85 198q0 114 85.5 188.5t210.5 74.5q69 0 123 -30q18 -10 41 -31q0 16 -0.5 35t-6.5 39q-12 41 -43 60q-36 22 -107 22q-40 0 -101 -19q-83 -26 -110 -44l45 216q24 10 122 26q72 12 115 12
q134 0 217 -58q96 -67 96 -197v-529zM524 235q0 45 -34 74t-85 29q-44 0 -77.5 -26t-33.5 -68q0 -46 31.5 -73.5t87.5 -27.5q47 0 76 21q35 25 35 71zM741 956l-115 -117l-123 113l116 119zM439 956l-115 -117l-124 113l116 119z" />
    <glyph glyph-name="atilde" unicode="&#xe3;" horiz-adv-x="810" 
d="M753 0l-218 -23v64q-28 -25 -48 -37q-63 -38 -133 -38q-122 0 -203 71q-85 75 -85 198q0 114 85.5 188.5t210.5 74.5q69 0 123 -30q18 -10 41 -31q0 16 -0.5 35t-6.5 39q-12 41 -43 60q-36 22 -107 22q-40 0 -101 -19q-83 -26 -110 -44l45 216q24 10 122 26q72 12 115 12
q134 0 217 -58q96 -67 96 -197v-529zM524 235q0 45 -34 74t-85 29q-44 0 -77.5 -26t-33.5 -68q0 -46 31.5 -73.5t87.5 -27.5q47 0 76 21q35 25 35 71zM692 917q-36 -41 -70.5 -60.5t-81.5 -19.5q-39 0 -99 26.5t-85 26.5q-28 0 -52 -15q-16 -10 -43 -37l-75 93q40 43 71 61
q39 22 90 22q35 0 98 -25t85 -25q41 0 70 23q23 25 24 26z" />
    <glyph glyph-name="aring" unicode="&#xe5;" horiz-adv-x="808" 
d="M579 973q0 -54 -38 -93t-92 -39q-58 0 -100 40t-42 96t40 95t96 39t96 -41t40 -97zM492 981q-2 20 -16 32t-34 12q-19 0 -33 -14t-14 -34t14 -35t34 -15q21 0 35 16t14 38zM753 0l-218 -23v64q-28 -25 -48 -37q-63 -38 -133 -38q-122 0 -203 71q-85 75 -85 198
q0 114 85.5 188.5t210.5 74.5q69 0 123 -30q18 -10 41 -31q0 16 -0.5 35t-6.5 39q-12 41 -43 60q-36 22 -107 22q-40 0 -101 -19q-83 -26 -110 -44l45 216q24 10 122 26q72 12 115 12q134 0 217 -58q96 -67 96 -197v-529zM524 235q0 45 -34 74t-85 29q-44 0 -77.5 -26
t-33.5 -68q0 -46 31.5 -73.5t87.5 -27.5q47 0 76 21q35 25 35 71z" />
    <glyph glyph-name="ccedilla" unicode="&#xe7;" horiz-adv-x="821" 
d="M768 59q-21 -15 -34 -23q-42 -28 -64 -38q-41 -19 -74 -28t-71 -9l-11 -28l21 -1q44 -10 66 -41t22 -75q0 -50 -35 -84t-88 -34q-37 0 -73 13q-48 17 -64 33l32 81q16 -12 25 -17q30 -18 51 -18q49 0 49 39q0 15 -8 22t-21 7q-16 0 -26 -6q-3 -2 -8 -7l-58 45l34 72
q-19 0 -34.5 3t-37.5 9q-144 44 -219.5 146t-75.5 247q0 174 117.5 294.5t297.5 120.5q121 0 215 -50q31 -16 70 -50l-128 -168q-20 17 -36 25q-48 25 -109 25q-78 0 -129.5 -64t-51.5 -143q0 -69 57 -123t124 -54q48 0 84.5 14.5t60.5 38.5z" />
    <glyph glyph-name="eacute" unicode="&#xe9;" horiz-adv-x="912" 
d="M851 542l-490 -308q18 -14 34 -21q50 -22 118 -22q61 0 128 40q22 13 56 41l121 -187q-23 -15 -45 -30q-59 -36 -115 -57q-84 -31 -159 -31q-183 0 -306.5 116.5t-123.5 288.5q0 157 103 276.5t261 135.5q27 3 53 3q116 0 210 -63q68 -45 118 -118q18 -32 37 -64z
M570 555q-8 5 -14 8q-37 19 -76 19q-27 0 -52.5 -8t-51.5 -28q-63 -48 -78 -130q-2 -14 -4 -35zM672 971l-300 -134l-62 114l288 154z" />
    <glyph glyph-name="egrave" unicode="&#xe8;" horiz-adv-x="907" 
d="M851 542l-490 -308q18 -14 34 -21q50 -22 118 -22q61 0 128 40q22 13 56 41l121 -187q-23 -15 -45 -30q-59 -36 -115 -57q-84 -31 -159 -31q-183 0 -306.5 116.5t-123.5 288.5q0 157 103 276.5t261 135.5q27 3 53 3q116 0 210 -63q68 -45 118 -118q18 -32 37 -64z
M570 555q-8 5 -14 8q-37 19 -76 19q-27 0 -52.5 -8t-51.5 -28q-63 -48 -78 -130q-2 -14 -4 -35zM696 954l-62 -114l-300 134l74 134z" />
    <glyph glyph-name="ecircumflex" unicode="&#xea;" horiz-adv-x="917" 
d="M851 542l-490 -308q18 -14 34 -21q50 -22 118 -22q61 0 128 40q22 13 56 41l121 -187q-23 -15 -45 -30q-59 -36 -115 -57q-84 -31 -159 -31q-183 0 -306.5 116.5t-123.5 288.5q0 157 103 276.5t261 135.5q27 3 53 3q116 0 210 -63q68 -45 118 -118q18 -32 37 -64z
M570 555q-8 5 -14 8q-37 19 -76 19q-27 0 -52.5 -8t-51.5 -28q-63 -48 -78 -130q-2 -14 -4 -35zM721 895l-114 -52l-124 94l-126 -98l-109 58l240 190z" />
    <glyph glyph-name="edieresis" unicode="&#xeb;" horiz-adv-x="921" 
d="M851 542l-490 -308q18 -14 34 -21q50 -22 118 -22q61 0 128 40q22 13 56 41l121 -187q-23 -15 -45 -30q-59 -36 -115 -57q-84 -31 -159 -31q-183 0 -306.5 116.5t-123.5 288.5q0 157 103 276.5t261 135.5q27 3 53 3q116 0 210 -63q68 -45 118 -118q18 -32 37 -64z
M570 555q-8 5 -14 8q-37 19 -76 19q-27 0 -52.5 -8t-51.5 -28q-63 -48 -78 -130q-2 -14 -4 -35zM783 959l-115 -117l-123 113l116 119zM481 959l-115 -117l-124 113l116 119z" />
    <glyph glyph-name="iacute" unicode="&#xed;" horiz-adv-x="522" 
d="M411 0l-241 -18v770l241 28v-780zM474 976l-300 -134l-62 114l288 154z" />
    <glyph glyph-name="igrave" unicode="&#xec;" horiz-adv-x="524" 
d="M394 0l-241 -18v770l241 28v-780zM462 954l-62 -114l-300 134l74 134z" />
    <glyph glyph-name="icircumflex" unicode="&#xee;" horiz-adv-x="526" 
d="M390 0l-241 -18v770l241 28v-780zM503 897l-114 -52l-124 94l-126 -98l-109 58l240 190z" />
    <glyph glyph-name="idieresis" unicode="&#xef;" horiz-adv-x="532" 
d="M395 0l-241 -18v770l241 28v-780zM545 959l-115 -117l-123 113l116 119zM243 959l-115 -117l-124 113l116 119z" />
    <glyph glyph-name="ntilde" unicode="&#xf1;" horiz-adv-x="787" 
d="M727 0l-240 -20v452v17q0 52 -10 81q-17 50 -63 50q-6 0 -26 -4q-56 -15 -73 -69q-10 -32 -10 -119v-388l-240 -20v777l225 27v-86l40 46q56 45 143 45q108 0 181 -72t73 -180v-537zM648 917q-36 -41 -70.5 -60.5t-81.5 -19.5q-39 0 -99 26.5t-85 26.5q-28 0 -52 -15
q-16 -10 -43 -37l-75 93q40 43 71 61q39 22 90 22q35 0 98 -25t85 -25q41 0 70 23q23 25 24 26z" />
    <glyph glyph-name="oacute" unicode="&#xf3;" horiz-adv-x="977" 
d="M915 384q0 -165 -121.5 -286.5t-292.5 -121.5q-176 0 -301 119t-125 295q0 166 123.5 286.5t295.5 120.5q186 0 305 -119q116 -116 116 -294zM680 389q0 77 -53 131t-131 54q-75 0 -129.5 -53.5t-54.5 -127.5q0 -79 53.5 -133.5t129.5 -54.5q77 0 131 54t54 130zM685 972
l-300 -134l-62 114l288 154z" />
    <glyph glyph-name="ograve" unicode="&#xf2;" horiz-adv-x="972" 
d="M915 384q0 -165 -121.5 -286.5t-292.5 -121.5q-176 0 -301 119t-125 295q0 166 123.5 286.5t295.5 120.5q186 0 305 -119q116 -116 116 -294zM680 389q0 77 -53 131t-131 54q-75 0 -129.5 -53.5t-54.5 -127.5q0 -79 53.5 -133.5t129.5 -54.5q77 0 131 54t54 130zM672 956
l-62 -114l-300 134l74 134z" />
    <glyph glyph-name="ocircumflex" unicode="&#xf4;" horiz-adv-x="976" 
d="M915 384q0 -165 -121.5 -286.5t-292.5 -121.5q-176 0 -301 119t-125 295q0 166 123.5 286.5t295.5 120.5q186 0 305 -119q116 -116 116 -294zM680 389q0 77 -53 131t-131 54q-75 0 -129.5 -53.5t-54.5 -127.5q0 -79 53.5 -133.5t129.5 -54.5q77 0 131 54t54 130zM739 896
l-114 -52l-124 94l-126 -98l-109 58l240 190z" />
    <glyph glyph-name="odieresis" unicode="&#xf6;" horiz-adv-x="980" 
d="M915 384q0 -165 -121.5 -286.5t-292.5 -121.5q-176 0 -301 119t-125 295q0 166 123.5 286.5t295.5 120.5q186 0 305 -119q116 -116 116 -294zM680 389q0 77 -53 131t-131 54q-75 0 -129.5 -53.5t-54.5 -127.5q0 -79 53.5 -133.5t129.5 -54.5q77 0 131 54t54 130zM795 953
l-115 -117l-123 113l116 119zM493 953l-115 -117l-124 113l116 119z" />
    <glyph glyph-name="otilde" unicode="&#xf5;" horiz-adv-x="973" 
d="M915 384q0 -165 -121.5 -286.5t-292.5 -121.5q-176 0 -301 119t-125 295q0 166 123.5 286.5t295.5 120.5q186 0 305 -119q116 -116 116 -294zM680 389q0 77 -53 131t-131 54q-75 0 -129.5 -53.5t-54.5 -127.5q0 -79 53.5 -133.5t129.5 -54.5q77 0 131 54t54 130zM758 919
q-36 -41 -70.5 -60.5t-81.5 -19.5q-39 0 -99 26.5t-85 26.5q-28 0 -52 -15q-16 -10 -43 -37l-75 93q40 43 71 61q39 22 90 22q35 0 98 -25t85 -25q41 0 70 23q23 25 24 26z" />
    <glyph glyph-name="uacute" unicode="&#xfa;" 
d="M727 0l-225 -27v84l-40 -46q-56 -45 -143 -45q-108 0 -181 72t-73 180v545l239 21v-460q0 -62 6 -86q16 -63 67 -63q14 0 27 4q56 15 73 69q10 32 10 119v397l240 20v-784zM602 977l-300 -134l-62 114l288 154z" />
    <glyph glyph-name="ugrave" unicode="&#xf9;" horiz-adv-x="791" 
d="M727 0l-225 -27v84l-40 -46q-56 -45 -143 -45q-108 0 -181 72t-73 180v545l239 21v-460q0 -62 6 -86q16 -63 67 -63q14 0 27 4q56 15 73 69q10 32 10 119v397l240 20v-784zM589 955l-62 -114l-300 134l74 134z" />
    <glyph glyph-name="ucircumflex" unicode="&#xfb;" 
d="M727 0l-225 -27v84l-40 -46q-56 -45 -143 -45q-108 0 -181 72t-73 180v545l239 21v-460q0 -62 6 -86q16 -63 67 -63q14 0 27 4q56 15 73 69q10 32 10 119v397l240 20v-784zM666 897l-114 -52l-124 94l-126 -98l-109 58l240 190z" />
    <glyph glyph-name="udieresis" unicode="&#xfc;" 
d="M727 0l-225 -27v84l-40 -46q-56 -45 -143 -45q-108 0 -181 72t-73 180v545l239 21v-460q0 -62 6 -86q16 -63 67 -63q14 0 27 4q56 15 73 69q10 32 10 119v397l240 20v-784zM690 960l-115 -117l-123 113l116 119zM388 960l-115 -117l-124 113l116 119z" />
    <glyph glyph-name="dagger" unicode="&#x2020;" horiz-adv-x="803" 
d="M748 628h-306v-885h-80v885h-299l-1 86h300v308h82v-308h304v-86z" />
    <glyph glyph-name="degree" unicode="&#xb0;" horiz-adv-x="452" 
d="M381 950q0 -64 -46 -109t-111 -45q-64 0 -109.5 47.5t-45.5 113.5q0 62 45 107t107 45q66 0 113 -47t47 -112zM340 955q0 46 -34 78t-82 32q-46 0 -79.5 -31.5t-33.5 -77.5q0 -47 33 -82t80 -35q48 0 82 34t34 82z" />
    <glyph glyph-name="cent" unicode="&#xa2;" horiz-adv-x="646" 
d="M587 307q-13 -11 -21 -17q-26 -20 -44.5 -29.5t-40.5 -15.5t-45 -9v-212l-136 -17v231q-85 19 -156 97t-71 181q0 111 56 192q41 60 106 98q30 18 61 28v202l134 19v-215q37 -5 88 -27q17 -7 49 -30q5 -3 14 -10l-106 -151q-12 11 -21 16q-28 16 -63 16q-11 0 -37 -2.5
t-53.5 -38.5t-27.5 -86q0 -44 33.5 -76.5t74.5 -32.5t72 16q10 5 24 17z" />
    <glyph glyph-name="sterling" unicode="&#xa3;" horiz-adv-x="1013" 
d="M950 387q-7 -59 -14 -92q-21 -100 -57 -149q-50 -67 -123 -103q-88 -43 -214 -43h-477v226h127v220h-125l44 210h81v65q0 149 92.5 241.5t235.5 92.5q116 0 198 -65q58 -46 95 -121q10 -21 26 -68l-224 -68q2 17 -22 58q-32 53 -80 53q-38 0 -63 -28.5t-25 -81.5v-78h146
v-210h-142v-221h89q43 0 73.5 7.5t58.5 30.5t41 80q9 39 9 77v8q0 1 -1 4z" />
    <glyph glyph-name="section" unicode="&#xa7;" horiz-adv-x="763" 
d="M697 342q0 -62 -29.5 -108.5t-86.5 -85.5l-42 -28q83 -64 83 -163q0 -96 -71 -157t-177 -61q-116 0 -188.5 77.5t-72.5 189.5h86q-1 -7 -1.5 -15.5t-0.5 -12.5q0 -68 48 -112q25 -23 60 -35t73 -12q45 0 81.5 19t53.5 56q13 29 13 61q0 40 -21 77t-57 62l-292 193
q-54 36 -80.5 81.5t-26.5 107.5q0 63 29 108.5t85 80.5l35 21q-38 35 -54 72t-16 91q0 90 73 148.5t171 58.5q116 0 185 -74t69 -187h-79q1 7 1 22q0 48 -20.5 84t-64.5 58q-38 18 -83 18q-56 0 -101.5 -27t-57.5 -77q-4 -15 -4 -32q0 -44 30 -84q26 -34 74 -63l209 -129
q83 -51 118 -92q49 -57 49 -131zM616 325q0 41 -18.5 71t-56.5 54l-295 189l-29 -16q-43 -24 -65 -53q-25 -33 -25 -77q0 -45 23 -80q20 -31 61 -58l281 -186l35 21q43 27 64 56q25 35 25 79z" />
    <glyph glyph-name="bullet" unicode="&#x2022;" horiz-adv-x="520" 
d="M458 434q0 -81 -52.5 -140t-130.5 -59q-81 0 -142 52t-61 129q0 83 56 143t137 60q79 0 136 -53.5t57 -131.5z" />
    <glyph glyph-name="paragraph" unicode="&#xb6;" horiz-adv-x="759" 
d="M688 -224h-93v1185h-173v-1187l-94 -2v734q-112 0 -192.5 79.5t-80.5 192.5q0 116 80 197t200 81l353 1v-1281z" />
    <glyph glyph-name="germandbls" unicode="&#xdf;" horiz-adv-x="1004" 
d="M942 273q0 -128 -101.5 -214.5t-237.5 -86.5q-66 0 -115 24t-98 76v-95l-195 -69v532h-130l43 201h80q-6 30 8 107q22 121 86 195q90 104 253 104q127 0 223 -81.5t96 -202.5q0 -71 -24 -123t-79 -98q90 -34 140.5 -104t50.5 -165zM727 301q0 70 -58 111q-53 37 -128 37
h-72v182h51q57 0 91 23q41 28 41 87q0 51 -36.5 83.5t-95.5 32.5q-65 0 -101 -60q-31 -52 -31 -126v-374l64 27q-1 -5 -1 -15q0 -57 43 -97t109 -40q124 0 124 129z" />
    <glyph glyph-name="registered" unicode="&#xae;" horiz-adv-x="1117" 
d="M567 13q-236 0 -374 155q-125 140 -125 343q0 202 125 343q139 156 374 156q236 0 374 -155q125 -141 125 -344q0 -202 -124 -342q-138 -156 -375 -156zM567 66q211 0 334 139q111 125 111 306t-111 307q-123 139 -334 139t-334 -139q-111 -125 -111 -307
q0 -181 111 -306q123 -139 334 -139zM806 205h-63l-4 1q-13 26 -15.5 128t-50.5 128q-16 9 -30.5 11.5t-35.5 2.5h-24h-160v-271h-58v599h220q96 0 148 -28q71 -38 71 -128q0 -55 -25 -91.5t-74 -57.5q30 -17 33 -19q15 -11 25.5 -31t14 -39.5t3.5 -44.5q0 -15 -1 -34
t-1 -23q0 -24 2.5 -39.5t10.5 -40.5q2 -5 6 -11zM747 641q0 63 -48 91q-38 22 -105 22h-171l1 -223l167 -4q69 0 106 21q50 28 50 93z" />
    <glyph glyph-name="copyright" unicode="&#xa9;" horiz-adv-x="1118" 
d="M559 13q-236 0 -374 155q-125 140 -125 343q0 202 125 343q139 156 374 156t373 -155q125 -141 125 -344q0 -202 -124 -342q-138 -156 -374 -156zM559 66q211 0 334 139q111 125 111 306t-111 307q-123 139 -334 139t-334 -139q-111 -125 -111 -307q0 -181 111 -306
q123 -139 334 -139zM804 411q-17 -96 -88 -154t-172 -58q-129 0 -193 97q-53 81 -53 212q0 130 65 218q73 99 199 99q87 0 152.5 -44.5t79.5 -124.5l4 -23h-60l-4 19q-12 57 -61.5 88.5t-110.5 31.5q-106 0 -160 -83q-46 -71 -46 -180q0 -111 34 -170q45 -78 158 -91
q6 -1 17 -1q63 0 114.5 47.5t65.5 116.5h59z" />
    <glyph glyph-name="trademark" unicode="&#x2122;" horiz-adv-x="975" 
d="M415 978h-156v-457h-48v457h-155v42h359v-42zM916 521h-48v441l-164 -440h-44l-159 441v-442h-50l1 496h76l156 -436l161 435h71v-495z" />
    <glyph glyph-name="acute" unicode="&#xb4;" horiz-adv-x="485" 
d="M427 921l-300 -134l-62 114l288 154z" />
    <glyph glyph-name="dieresis" unicode="&#xa8;" horiz-adv-x="658" 
d="M606 940l-115 -117l-123 113l116 119zM304 940l-115 -117l-124 113l116 119z" />
    <glyph glyph-name="AE" unicode="&#xc6;" horiz-adv-x="1573" 
d="M1540 225l-67 -225l-340 -2l-279 -36l1 214h-398l-189 -208l-236 58l816 855v146l611 -3l52 -213h-399v-177h287v-222h-288v-187h429zM856 396v230l-208 -230h208z" />
    <glyph glyph-name="Oslash" unicode="&#xd8;" horiz-adv-x="1228" 
d="M1134 501q0 -222 -168 -377q-164 -152 -392 -152q-56 0 -116 13l-71 -155l-160 59l71 153q-130 71 -201.5 201t-71.5 289q0 220 164 369t396 149q42 0 84.5 -7t83.5 -19l66 142l154 -66l-69 -151q107 -75 168.5 -193t61.5 -255zM647 796q-36 9 -76 9q-119 0 -205 -95.5
t-86 -222.5q0 -63 35 -122q32 -54 88 -96zM868 536q-5 50 -24 93.5t-51 79.5l-231 -499h26q107 0 194 92t87 208v16q-1 7 -1 10z" />
    <glyph glyph-name="plusminus" unicode="&#xb1;" horiz-adv-x="689" 
d="M628 409h-245v-244h-64v244h-241l-1 70h242v244h66v-245h243v-69zM622 -2h-556v53h556v-53z" />
    <glyph glyph-name="yen" unicode="&#xa5;" horiz-adv-x="1094" 
d="M1028 972l-173 -352h66v-53h-92l-62 -125h154v-53h-180l-228 -462l-280 53l190 359l-31 50h-221v53h187l-78 125h-109v53h76l-220 350l266 99l266 -449h12l199 439z" />
    <glyph glyph-name="mu" unicode="&#xb5;" horiz-adv-x="989" 
d="M942 153l-10 -47q-12 -58 -70 -99q-52 -37 -104 -37q-8 0 -12 1q-52 8 -92 50q-43 45 -43 102l-40 -39q-48 -48 -101.5 -77.5t-94.5 -29.5q-40 0 -88 21q-57 25 -89 68v-55q0 -46 27 -118t27 -133q0 -39 -21 -69.5t-56 -30.5q-32 0 -53.5 27.5t-21.5 63.5q0 48 12 87
q34 110 35 119l3 42v771h130v-531q0 -65 40 -115.5t101 -50.5q62 0 125 49q68 53 68 115v533h127v-600q0 -47 22.5 -87t59.5 -40q8 0 12 1q51 10 67 68l12 41h28z" />
    <glyph glyph-name="ordfeminine" unicode="&#xaa;" horiz-adv-x="479" 
d="M417 661l-109 -12l1 32q-14 -12 -24 -18q-32 -19 -67 -19q-61 0 -101 35q-43 38 -43 99q0 57 42.5 94.5t105.5 37.5q34 0 61 -15q9 -5 21 -16q0 8 -0.5 17t-4.5 24.5t-20 23.5t-55 8q-24 0 -66 -13q-14 -4 -38 -13l23 108q26 6 41 9q47 9 77 9q67 0 108 -29
q48 -34 48 -98v-264zM414 497h-307v92h307v-92zM303 778q0 23 -17 37t-42 14q-22 0 -39 -13t-17 -33q0 -24 15.5 -37.5t44.5 -13.5q24 0 39.5 11t15.5 35z" />
    <glyph glyph-name="ordmasculine" unicode="&#xba;" horiz-adv-x="545" 
d="M489 844q0 -82 -57.5 -142.5t-136.5 -60.5q-90 0 -156 54q-70 58 -70 142q0 87 60 150t145 63q94 0 154.5 -58.5t60.5 -147.5zM435 494h-307v93h307v-93zM372 846q0 39 -27 66t-66 27q-38 0 -64.5 -27.5t-26.5 -65.5q0 -39 27.5 -65.5t65.5 -26.5q37 0 64 27t27 65z" />
    <glyph glyph-name="ae" unicode="&#xe6;" horiz-adv-x="1387" 
d="M1315 553l-490 -308q18 -14 34 -21q50 -22 118 -22q61 0 128 40q22 13 56 41l121 -187q-23 -15 -45 -30q-59 -36 -115 -57q-84 -31 -159 -31q-91 0 -163 20q-114 32 -166 109q-12 -18 -23 -36q-34 -42 -82 -68q-69 -37 -160 -37q-124 0 -210 71q-93 76 -93 198
q0 114 85.5 188.5t210.5 74.5q69 0 123 -30q18 -10 41 -31q0 16 -0.5 35t-6.5 39q-12 41 -43 60q-36 22 -107 22q-51 0 -135 -31q-28 -10 -76 -32l45 216q59 14 128 26t109 12q73 0 136 -19.5t106 -60.5q44 36 100 60.5t99 29t69 4.5q116 0 210 -63q68 -45 118 -118
q18 -32 37 -64zM1034 566q-8 5 -14 8q-37 19 -76 19q-27 0 -52.5 -8t-51.5 -28q-63 -48 -78 -130q-2 -14 -4 -35zM524 235q0 45 -34 74t-85 29q-44 0 -77.5 -26t-33.5 -68q0 -46 31.5 -73.5t87.5 -27.5q47 0 76 21q35 25 35 71z" />
    <glyph glyph-name="oslash" unicode="&#xf8;" horiz-adv-x="983" 
d="M915 384q0 -165 -114.5 -286t-274.5 -121q-54 0 -95 5.5t-82 20.5l-29 -49l-141 40l47 79q-69 57 -108 130q-43 80 -43 167q0 174 119.5 300.5t289.5 126.5q43 0 83 -5.5t74 -16.5l60 101l136 -46l-72 -122q71 -56 110.5 -140t39.5 -184zM521 572l-27 2
q-75 0 -128.5 -54.5t-53.5 -131.5q0 -57 36 -108zM680 389q0 63 -38 111l-173 -293l29 -2q75 0 128.5 54.5t53.5 129.5z" />
    <glyph glyph-name="questiondown" unicode="&#xbf;" horiz-adv-x="785" 
d="M566 693l-167 -164l-163 171l167 163zM731 -87q-17 -21 -34 -43q-47 -51 -105 -82q-83 -44 -178 -44q-153 0 -249 87t-96 218q0 95 58 176q48 67 119 104q47 24 47 85v57l231 21v-114q0 -58 -10 -96t-39 -68q-17 -17 -69 -52q-78 -53 -78 -104q1 -7 1 -11q3 -36 35 -57
q28 -18 65 -18q10 1 14 1q40 4 76 41q27 27 29 41z" />
    <glyph glyph-name="exclamdown" unicode="&#xa1;" horiz-adv-x="459" 
d="M406 701l-171 -172l-170 171l170 172zM374 -221l-268 -32l18 737l233 24z" />
    <glyph glyph-name="logicalnot" unicode="&#xac;" horiz-adv-x="1118" 
d="M1062 0h-83v348h-916v77h999v-425z" />
    <glyph glyph-name="florin" unicode="&#x192;" horiz-adv-x="734" 
d="M680 1064q-19 -51 -72 -51q-12 0 -23 10q-18 17 -22 19q-8 3 -13 3q-31 0 -47 -153q-10 -100 -20 -139l-8 -29h138l-8 -57h-145l-83 -416q-19 -97 -41 -166q-34 -110 -79 -178q-55 -84 -119 -84q-14 0 -31 4.5t-28.5 19.5t-11.5 32q0 5 2 13q8 24 24.5 37.5t39.5 13.5
q18 0 31 -23q7 -13 17 -16q44 -14 75 138q19 104 27 146l97 481h-152l4 57h169l7 37q31 151 75 242q59 123 134 123q23 0 44 -16t21 -36q0 -4 -2 -12z" />
    <glyph glyph-name="guillemotleft" unicode="&#xab;" horiz-adv-x="774" 
d="M710 539l-206 -148l202 -143v-149l-287 223v143l291 215v-141zM345 539l-206 -148l202 -143v-149l-286 223v143l290 215v-141z" />
    <glyph glyph-name="guillemotright" unicode="&#xbb;" horiz-adv-x="765" 
d="M709 322l-286 -223v149l202 143l-207 148v141l291 -215v-143zM344 322l-286 -223v149l202 143l-207 148v141l291 -215v-143z" />
    <glyph glyph-name="ellipsis" unicode="&#x2026;" horiz-adv-x="1595" 
d="M978 139l-170 -173l-183 168l172 176zM418 139l-170 -173l-183 168l172 176zM1533 136l-170 -173l-183 168l172 176z" />
    <glyph glyph-name="nonbreakingspace" unicode="&#xa0;" horiz-adv-x="846" 
 />
    <glyph glyph-name="Agrave" unicode="&#xc0;" horiz-adv-x="1260" 
d="M1204 -33l-263 -56l-110 232h-387l-98 -234l-264 58l562 1099zM741 360l-104 229l-102 -229h206zM846 1177l-62 -114l-300 134l74 134z" />
    <glyph glyph-name="Atilde" unicode="&#xc3;" horiz-adv-x="1275" 
d="M1198 -18l-263 -56l-110 232h-387l-98 -234l-264 58l562 1099zM735 375l-104 229l-102 -229h206zM924 1160q-36 -41 -70.5 -60.5t-81.5 -19.5q-39 0 -99 26.5t-85 26.5q-28 0 -52 -15q-16 -10 -43 -37l-75 93q40 43 71 61q39 22 90 22q35 0 98 -25t85 -25q41 0 70 23
q23 25 24 26z" />
    <glyph glyph-name="Otilde" unicode="&#xd5;" horiz-adv-x="1242" 
d="M1177 517q0 -226 -160 -384t-391 -158q-240 0 -399 153t-159 382q0 234 161.5 388.5t394.5 154.5q227 0 390 -156t163 -380zM912 516q0 119 -83 204q-86 88 -211 88q-119 0 -207 -91t-88 -213q0 -115 89.5 -203.5t204.5 -88.5q111 0 201 89q94 93 94 215zM902 1160
q-36 -41 -70.5 -60.5t-81.5 -19.5q-39 0 -99 26.5t-85 26.5q-28 0 -52 -15q-16 -10 -43 -37l-75 93q40 43 71 61q39 22 90 22q35 0 98 -25t85 -25q41 0 70 23q23 25 24 26z" />
    <glyph glyph-name="OE" unicode="&#x152;" horiz-adv-x="1668" 
d="M1614 225l-68 -225h-624v50q-62 -36 -136 -57t-151 -21q-240 0 -399 153t-159 382q0 234 161.5 388.5t394.5 154.5q155 0 289 -79v51h611l52 -225h-399v-163h287v-225h-289v-184h430zM921 513q0 119 -83 204q-86 88 -211 88q-119 0 -207 -91t-88 -213q0 -115 89.5 -203.5
t204.5 -88.5q111 0 201 89q94 93 94 215z" />
    <glyph glyph-name="oe" unicode="&#x153;" horiz-adv-x="1539" 
d="M1476 550l-490 -308q18 -14 34 -21q50 -22 118 -22q61 0 128 40q22 13 56 41l121 -187q-23 -15 -45 -30q-59 -36 -115 -57q-84 -31 -159 -31q-96 0 -178.5 34.5t-142.5 97.5q-56 -59 -127 -94.5t-150 -35.5q-180 0 -312 109q-139 114 -139 284q0 174 119.5 300.5
t289.5 126.5q203 0 323 -128q51 52 114 83.5t137 39.5q27 3 53 3q116 0 210 -63q68 -45 118 -118q18 -32 37 -64zM1195 563q-8 5 -14 8q-37 19 -76 19q-27 0 -52.5 -8t-51.5 -28q-63 -48 -78 -130q-2 -14 -4 -35zM680 389q0 77 -54 131t-132 54q-75 0 -128.5 -54.5
t-53.5 -131.5q0 -75 55 -129t131 -54q75 0 128.5 54.5t53.5 129.5z" />
    <glyph glyph-name="endash" unicode="&#x2013;" horiz-adv-x="1146" 
d="M1083 325h-1018v186h1018v-186z" />
    <glyph glyph-name="emdash" unicode="&#x2014;" horiz-adv-x="1398" 
d="M1344 325h-1279v186h1279v-186z" />
    <glyph glyph-name="quotedblleft" unicode="&#x201c;" horiz-adv-x="660" 
d="M612 991q-7 -4 -39 -73q-36 -78 -36 -114q0 -26 31 -52q17 -15 36 -24l-154 -128q-23 17 -36 30q-72 70 -72 133q0 41 39 116q28 55 73 121q38 56 40 56zM339 991q-8 -3 -40 -73q-36 -78 -36 -114q0 -26 31 -52q10 -9 36 -24l-154 -128q-42 32 -73 75q-34 48 -34 88
q0 57 75 180q25 41 76 113z" />
    <glyph glyph-name="quotedblright" unicode="&#x201d;" horiz-adv-x="660" 
d="M609 894q0 -41 -39 -116q-28 -55 -73 -121q-38 -56 -40 -56l-118 65q7 4 39 73q36 78 36 114q0 26 -31 52q-17 15 -36 24l154 128q23 -17 36 -30q72 -70 72 -133zM335 894q0 -57 -75 -180q-25 -41 -76 -113l-119 65q8 3 40 73q36 78 36 114q0 26 -31 52q-10 9 -36 24
l153 128q23 -17 36 -30q72 -70 72 -133z" />
    <glyph glyph-name="quoteleft" unicode="&#x2018;" horiz-adv-x="399" 
d="M339 991q-8 -3 -40 -73q-36 -78 -36 -114q0 -26 31 -52q10 -9 36 -24l-154 -128q-42 32 -73 75q-34 48 -34 88q0 57 75 180q25 41 76 113z" />
    <glyph glyph-name="quoteright" unicode="&#x2019;" horiz-adv-x="395" 
d="M335 890q0 -40 -39 -115q-28 -54 -73 -121q-38 -56 -39 -56l-119 65q8 2 40 72q36 78 36 114q0 20 -19 41q-23 25 -48 35l153 128q33 -17 75 -75q33 -46 33 -88z" />
    <glyph glyph-name="divide" unicode="&#xf7;" horiz-adv-x="967" 
d="M569 630q0 -38 -27 -65t-66 -27q-37 0 -62.5 27.5t-25.5 66.5q0 37 26 63t64 26t64.5 -26.5t26.5 -64.5zM906 365h-843v92h843v-92zM567 190q0 -37 -27 -64t-65 -27q-37 0 -62.5 27.5t-25.5 65.5q0 37 26 63t64 26q37 0 63.5 -26.5t26.5 -64.5z" />
    <glyph glyph-name="ydieresis" unicode="&#xff;" horiz-adv-x="920" 
d="M914 721l-468 -1013l-257 34l171 325l-307 654l243 54l192 -447l189 450zM782 964l-115 -117l-123 113l116 119zM480 964l-115 -117l-124 113l116 119z" />
    <glyph glyph-name="Ydieresis" unicode="&#x178;" horiz-adv-x="1056" 
d="M1028 966l-515 -1045l-280 53l190 359l-396 631l266 99l273 -460l204 450zM822 1188l-115 -117l-123 113l116 119zM520 1188l-115 -117l-124 113l116 119z" />
    <glyph glyph-name="periodcentered" unicode="&#xb7;" horiz-adv-x="469" 
d="M418 514l-170 -173l-183 168l172 176z" />
    <glyph glyph-name="periodcentered" unicode="&#x2219;" horiz-adv-x="469" 
d="M418 514l-170 -173l-183 168l172 176z" />
    <glyph glyph-name="quotesinglbase" unicode="&#x201a;" horiz-adv-x="395" 
d="M335 56q0 -40 -39 -115q-28 -54 -73 -121q-38 -56 -39 -56l-119 65q8 2 40 72q36 78 36 114q0 20 -19 41q-23 25 -48 35l153 128q33 -17 75 -75q33 -46 33 -88z" />
    <glyph glyph-name="quotedblbase" unicode="&#x201e;" horiz-adv-x="660" 
d="M609 60q0 -41 -39 -116q-28 -55 -73 -121q-38 -56 -40 -56l-118 65q7 4 39 73q36 78 36 114q0 26 -31 52q-17 15 -36 24l154 128q23 -17 36 -30q72 -70 72 -133zM335 60q0 -57 -75 -180q-25 -41 -76 -113l-119 65q8 3 40 73q36 78 36 114q0 26 -31 52q-10 9 -36 24
l153 128q23 -17 36 -30q72 -70 72 -133z" />
    <glyph glyph-name="Acircumflex" unicode="&#xc2;" horiz-adv-x="1224" 
d="M1183 0l-263 -56l-110 232h-387l-98 -234l-264 58l562 1099zM720 393l-104 229l-102 -229h206zM850 1131l-114 -52l-124 94l-126 -98l-109 58l240 190z" />
    <glyph glyph-name="Ecircumflex" unicode="&#xca;" horiz-adv-x="816" 
d="M757 225l-68 -225h-624v1022h611l52 -225h-399v-163h287v-225h-289v-184h430zM618 1131l-114 -52l-124 94l-126 -98l-109 58l240 190z" />
    <glyph glyph-name="Aacute" unicode="&#xc1;" horiz-adv-x="1232" 
d="M1183 0l-263 -56l-110 232h-387l-98 -234l-264 58l562 1099zM720 393l-104 229l-102 -229h206zM779 1209l-300 -134l-62 114l288 154z" />
    <glyph glyph-name="Edieresis" unicode="&#xcb;" horiz-adv-x="816" 
d="M757 225l-68 -225h-624v1022h611l52 -225h-399v-163h287v-225h-289v-184h430zM670 1188l-115 -117l-123 113l116 119zM368 1188l-115 -117l-124 113l116 119z" />
    <glyph glyph-name="Egrave" unicode="&#xc8;" horiz-adv-x="810" 
d="M757 225l-68 -225h-624v1022h611l52 -225h-399v-163h287v-225h-289v-184h430zM594 1184l-62 -114l-300 134l74 134z" />
    <glyph glyph-name="Iacute" unicode="&#xcd;" horiz-adv-x="540" 
d="M393 0l-259 -19l-1 1041l260 28v-1050zM451 1209l-300 -134l-62 114l288 154z" />
    <glyph glyph-name="Icircumflex" unicode="&#xce;" horiz-adv-x="528" 
d="M393 0l-259 -19l-1 1041l260 28v-1050zM498 1131l-114 -52l-124 94l-126 -98l-109 58l240 190z" />
    <glyph glyph-name="Idieresis" unicode="&#xcf;" horiz-adv-x="544" 
d="M393 0l-259 -19l-1 1041l260 28v-1050zM550 1188l-115 -117l-123 113l116 119zM248 1188l-115 -117l-124 113l116 119z" />
    <glyph glyph-name="Igrave" unicode="&#xcc;" horiz-adv-x="512" 
d="M393 0l-259 -19l-1 1041l260 28v-1050zM450 1184l-62 -114l-300 134l74 134z" />
    <glyph glyph-name="Oacute" unicode="&#xd3;" horiz-adv-x="1264" 
d="M1186 514q0 -226 -160 -384t-391 -158q-240 0 -399 153t-159 382q0 234 161.5 388.5t394.5 154.5q227 0 390 -156t163 -380zM921 513q0 119 -83 204q-86 88 -211 88q-119 0 -207 -91t-88 -213q0 -115 89.5 -203.5t204.5 -88.5q111 0 201 89q94 93 94 215zM811 1209
l-300 -134l-62 114l288 154z" />
    <glyph glyph-name="Ocircumflex" unicode="&#xd4;" horiz-adv-x="1264" 
d="M1186 514q0 -226 -160 -384t-391 -158q-240 0 -399 153t-159 382q0 234 161.5 388.5t394.5 154.5q227 0 390 -156t163 -380zM921 513q0 119 -83 204q-86 88 -211 88q-119 0 -207 -91t-88 -213q0 -115 89.5 -203.5t204.5 -88.5q111 0 201 89q94 93 94 215zM882 1131
l-114 -52l-124 94l-126 -98l-109 58l240 190z" />
    <glyph glyph-name="Ograve" unicode="&#xd2;" horiz-adv-x="1264" 
d="M1186 514q0 -226 -160 -384t-391 -158q-240 0 -399 153t-159 382q0 234 161.5 388.5t394.5 154.5q227 0 390 -156t163 -380zM921 513q0 119 -83 204q-86 88 -211 88q-119 0 -207 -91t-88 -213q0 -115 89.5 -203.5t204.5 -88.5q111 0 201 89q94 93 94 215zM810 1184
l-62 -114l-300 134l74 134z" />
    <glyph glyph-name="Uacute" unicode="&#xda;" horiz-adv-x="960" 
d="M898 367q0 -193 -122 -301q-112 -99 -291 -99q-189 0 -303 98q-117 101 -117 273v684l268 26v-664q0 -66 17 -101q31 -65 118 -65h15q7 1 10 1q89 8 119 76q15 34 15 102v625l271 25v-680zM707 1209l-300 -134l-62 114l288 154z" />
    <glyph glyph-name="Ucircumflex" unicode="&#xdb;" horiz-adv-x="960" 
d="M898 367q0 -193 -122 -301q-112 -99 -291 -99q-189 0 -303 98q-117 101 -117 273v684l268 26v-664q0 -66 17 -101q31 -65 118 -65h15q7 1 10 1q89 8 119 76q15 34 15 102v625l271 25v-680zM738 1131l-114 -52l-124 94l-126 -98l-109 58l240 190z" />
    <glyph glyph-name="Ugrave" unicode="&#xd9;" horiz-adv-x="960" 
d="M898 367q0 -193 -122 -301q-112 -99 -291 -99q-189 0 -303 98q-117 101 -117 273v684l268 26v-664q0 -66 17 -101q31 -65 118 -65h15q7 1 10 1q89 8 119 76q15 34 15 102v625l271 25v-680zM658 1184l-62 -114l-300 134l74 134z" />
  </font>
</defs>
</svg>
